<?xml version="1.0" encoding="utf-8"?>
<!-- Generator: Adobe Illustrator 24.2.3, SVG Export Plug-In . SVG Version: 6.00 Build 0)  -->
<svg version="1.1" id="Layer_1" xmlns="http://www.w3.org/2000/svg" xmlns:xlink="http://www.w3.org/1999/xlink" x="0px" y="0px"
	 viewBox="0 0 448 512" style="enable-background:new 0 0 448 512;" xml:space="preserve">
<style type="text/css">
	.st0{display:none;}
	.st1{display:inline;}
	.st2{display:inline;fill:#FFFFFF;}
	.st3{fill:#FFFFFF;}
</style>
<g>
	<path class="st3" d="M44.6,272.1c-8.4,0-16.9-0.1-25.3,0c-13.6,0.3-18.7,4.9-19,18.3c-0.4,16.9-0.2,33.7-0.1,50.6
		c0.1,12.3,6,19.1,18.7,19.1c16.9,0,33.8,0,50.6,0.1c12.8,0.1,19-6.9,19.4-18.7c0.5-16.8,0.7-33.8-0.2-50.6
		c-0.8-14.6-5.8-18.6-20.1-18.8C60.6,272,52.6,272.1,44.6,272.1z M44,479.5c8.5,0,16.9-0.2,25.4,0c12,0.4,18.8-5.2,19.1-17.2
		c0.5-17.8,0.9-35.6,0.3-53.4c-0.4-10.5-5.8-17.3-17.9-17c-17.8,0.4-35.6,0.3-53.5,0c-11.2-0.2-16.8,5.7-17,16.1
		c-0.5,18.2-0.5,36.5-0.1,54.8c0.3,10.3,5.9,16.5,16.9,16.6C26.1,479.5,35,479.5,44,479.5z M43.3,239.9c8.9,0,17.8-0.1,26.7,0
		c11.3,0.2,18.2-5.2,18.6-16.3c0.7-18.2,0.5-36.4,0-54.6c-0.3-10.4-6.7-16.5-17-16.8c-17.8-0.4-35.5-0.5-53.3,0
		c-11.3,0.3-18.1,6.4-18,18.5c0.1,17.3-0.2,34.6,0.1,52c0.2,11.3,6.3,17.1,17.7,17.1C26.4,239.9,34.8,239.9,43.3,239.9z M44.4,120.3
		c0,0,0,0.1,0,0.1c8.9,0,17.8,0,26.7,0c10,0,16.7-4.9,17-14.9c0.6-19.5,0.5-39.1,0-58.6c-0.2-8.9-6-13.7-14.9-13.8
		c-19.1-0.2-38.3-0.5-57.4-0.2C5.6,33.1,0.5,39.5,0.3,49.4c-0.2,18.2-0.3,36.5,0,54.8c0.2,10,5.9,15.7,15.9,16.1
		C25.7,120.5,35,120.3,44.4,120.3z M240.7,315.6c0,9.3,0.1,18.7,0,28c-0.1,10.4,5.3,16.1,15.3,16.3c18.7,0.4,37.4,0.3,56.1-0.1
		c9.9-0.2,15.6-5.9,15.7-16.1c0.1-18.2,0.1-36.5,0-54.8c0-10.8-5.4-16.7-16.3-16.8c-18.3-0.1-36.5-0.1-54.8,0
		c-10.9,0.1-16.3,5.6-16.1,16.7C240.8,297.8,240.7,306.7,240.7,315.6z M403.5,272.1c-8.4,0-16.9,0.2-25.3-0.1
		c-12.3-0.4-18.3,6.1-18.6,17.6c-0.5,17.7-0.4,35.5,0,53.3c0.2,11.3,6.8,17,17.9,17.2c17.8,0.2,35.5,0.1,53.3,0
		c10.9,0,16.7-6.3,16.9-16.5c0.5-18.6,0.5-37.3,0-55.9c-0.2-9.9-5.8-15.5-16.2-15.5C422.1,272.2,412.8,272.2,403.5,272.1z
		 M240.7,435.5c0,9.3,0,18.6,0,28c0,10.4,5.6,15.7,15.6,15.9c18.6,0.3,37.3,0.3,55.9,0c9.4-0.1,15.2-5.4,15.4-14.8
		c0.4-19.1,0.4-38.2,0-57.3c-0.2-9.2-5.1-15.1-14.9-15.1c-19.1-0.1-38.2-0.2-57.3,0.2c-9.5,0.2-14.7,5.5-14.8,15.2
		C240.6,416.9,240.7,426.2,240.7,435.5z M404,392.1c-8.5,0-17,0.4-25.4-0.1c-12.3-0.6-18.7,5.3-19,17.1c-0.5,17.8-0.5,35.6,0,53.4
		c0.3,10.9,6.1,17.2,17.8,17.1c17.8-0.2,35.6,0,53.5-0.1c11,0,16.6-6,16.8-16.5c0.4-18.3,0.4-36.5,0-54.8
		c-0.2-10.6-5.9-16.3-17-16.1C421.8,392.2,412.9,392.1,404,392.1z M240.7,77c0,8.9,0.2,17.8-0.1,26.7c-0.3,10.5,5,16.2,14.9,16.5
		c18.7,0.5,37.3,0.5,56,0.1c10.5-0.2,16.3-6.2,16.3-17c0-17.8-0.1-35.5,0-53.3c0.1-10.1-4.5-16.6-14.7-16.8
		c-19.5-0.4-39.1-0.2-58.6,0.2c-10,0.2-14,6.3-13.9,15.8C240.7,58.3,240.7,67.6,240.7,77z M447.8,75.6c0-8,0-16,0-24
		c0.1-12.5-6-19.1-18.7-19.1c-17.4,0-34.7-0.1-52.1,0.1c-11.2,0.1-17.5,6-17.7,17.3c-0.3,17.8-0.4,35.6,0.1,53.4
		c0.3,11,6.5,17.1,17.9,17.2c17.4,0,34.7,0,52.1,0c12,0,18.1-6.3,18.3-18.1C448,93.4,447.8,84.5,447.8,75.6z M240.7,196.1
		c0,8-0.1,16,0,24c0.1,15.4,3.7,19.4,18.5,19.7c16.9,0.4,33.8,0.1,50.8,0.1c11.9,0,18.1-5.7,18-18c-0.2-16.5,0.1-32.9-0.1-49.4
		c-0.1-14.3-4.8-19.7-18.9-20.2c-16.9-0.6-33.8-0.5-50.7,0c-11.5,0.3-18.2,5.9-17.6,18.5C241,179.1,240.7,187.6,240.7,196.1z
		 M403.3,239.8C403.3,239.8,403.3,239.8,403.3,239.8c8.9,0.1,17.8,0,26.6,0.1c12.3,0.1,17.8-6.5,17.9-18.2c0.1-16.9,0-33.7,0-50.6
		c0-11.9-6.3-18.4-17.8-18.8c-17.7-0.5-35.5-0.6-53.3,0c-9.9,0.4-17,5.8-17.2,16.6c-0.4,18.2-0.5,36.4,0,54.6
		c0.3,10.4,6.2,16.2,17.1,16.2C385.5,239.8,394.4,239.8,403.3,239.8z M207.4,436c0-9.3-0.1-18.7,0-28c0.1-10.4-4.9-15.8-15.3-15.9
		c-18.7-0.1-37.4,0-56.1,0c-9.2,0-14.6,5-14.9,13.7c-0.6,19.6-0.6,39.1-0.1,58.7c0.2,9.3,5.9,14.8,15.5,14.9
		c18.2,0.2,36.5,0.3,54.7,0c10.6-0.2,16.5-5.5,16.2-16.7C207.3,453.8,207.5,444.9,207.4,436z M207.4,314.9c0-8.9-0.1-17.8,0-26.7
		c0.2-10.6-5.4-15.8-15.4-16c-18.2-0.3-36.5-0.1-54.8-0.1c-10.3,0-16.1,5.4-16.4,15.4c-0.5,18.7-0.4,37.4,0,56.1
		c0.2,9.8,5.5,16,15.8,16.2c18.7,0.3,37.4,0.4,56.1-0.1c9.4-0.2,14.6-5.7,14.7-15.4C207.5,334.5,207.4,324.7,207.4,314.9z
		 M207.5,76.6c0-8.5-0.5-16.9,0.1-25.3c0.8-12.5-5.2-18.4-17-18.6c-17.8-0.3-35.6-0.2-53.4,0.1c-10.6,0.2-16.4,5.8-16.3,16.8
		c0,17.8,0,35.6,0,53.4c0,11.5,6.2,17.2,17.4,17.4c17.8,0.2,35.6,0.2,53.4,0c10.8-0.2,16.1-6,15.9-17
		C207.3,94.4,207.5,85.5,207.5,76.6z M207.5,197c0-8.5-0.5-17,0.1-25.4c0.9-12.3-5-18.9-16.7-19.2c-17.8-0.6-35.6-0.5-53.4,0.1
		c-9.2,0.4-16.4,4.9-16.4,15.6c-0.1,18.7-0.4,37.4,0,56.1c0.2,10.1,6.1,15.5,16.3,15.6c18.3,0.1,36.5,0.3,54.8-0.1
		c10-0.2,15.6-5.4,15.4-16C207.3,214.8,207.5,205.9,207.5,197z"/>
	<path d="M44.6,272.1c8,0,16-0.1,24,0c14.3,0.2,19.4,4.2,20.1,18.8c0.9,16.8,0.7,33.7,0.2,50.6c-0.4,11.9-6.6,18.9-19.4,18.7
		c-16.9-0.2-33.7-0.1-50.6-0.1c-12.7,0-18.6-6.8-18.7-19.1c-0.1-16.9-0.3-33.7,0.1-50.6c0.3-13.3,5.4-18,19-18.3
		C27.7,272,36.1,272.1,44.6,272.1z"/>
	<path d="M44,479.5c-8.9,0-17.8,0-26.7,0c-11-0.1-16.6-6.2-16.9-16.6c-0.5-18.2-0.4-36.5,0.1-54.8c0.3-10.4,5.8-16.3,17-16.1
		c17.8,0.3,35.6,0.4,53.5,0c12.1-0.3,17.5,6.5,17.9,17c0.6,17.8,0.2,35.6-0.3,53.4c-0.4,11.9-7.1,17.5-19.1,17.2
		C60.9,479.3,52.4,479.5,44,479.5z"/>
	<path d="M43.3,239.9c-8.4,0-16.9,0-25.3,0c-11.4,0-17.5-5.8-17.7-17.1c-0.3-17.3,0-34.6-0.1-52c-0.1-12.2,6.7-18.2,18-18.5
		c17.8-0.5,35.5-0.5,53.3,0c10.4,0.3,16.7,6.4,17,16.8c0.5,18.2,0.7,36.4,0,54.6c-0.4,11.1-7.4,16.5-18.6,16.3
		C61,239.8,52.2,239.9,43.3,239.9z"/>
	<path d="M44.4,120.3c-9.4,0-18.7,0.3-28.1-0.1c-10.1-0.4-15.8-6.1-15.9-16.1C0,85.9,0.1,67.6,0.3,49.4c0.1-9.9,5.2-16.3,15.4-16.5
		c19.1-0.3,38.3-0.1,57.4,0.2c8.9,0.1,14.7,4.9,14.9,13.8c0.5,19.5,0.6,39.1,0,58.6c-0.3,10-7,14.9-17,14.9c-8.9,0-17.8,0-26.7,0
		C44.4,120.3,44.4,120.3,44.4,120.3z"/>
	<path d="M240.7,315.6c0-8.9,0.1-17.8,0-26.7c-0.2-11.1,5.2-16.6,16.1-16.7c18.3-0.1,36.5-0.1,54.8,0c10.9,0.1,16.3,6,16.3,16.8
		c0.1,18.3,0.1,36.5,0,54.8c-0.1,10.2-5.7,15.9-15.7,16.1c-18.7,0.4-37.4,0.5-56.1,0.1c-10-0.2-15.4-5.9-15.3-16.3
		C240.7,334.3,240.7,324.9,240.7,315.6z"/>
	<path d="M403.5,272.1c9.3,0,18.7,0,28,0c10.3,0,15.9,5.6,16.2,15.5c0.5,18.6,0.5,37.3,0,55.9c-0.3,10.3-6.1,16.5-16.9,16.5
		c-17.8,0.1-35.5,0.2-53.3,0c-11.1-0.1-17.7-5.9-17.9-17.2c-0.4-17.8-0.5-35.5,0-53.3c0.3-11.5,6.3-18,18.6-17.6
		C386.6,272.4,395,272.1,403.5,272.1z"/>
	<path d="M240.7,435.5c0-9.3,0-18.6,0-28c0.1-9.7,5.3-15,14.8-15.2c19.1-0.4,38.2-0.3,57.3-0.2c9.8,0.1,14.8,5.9,14.9,15.1
		c0.4,19.1,0.4,38.2,0,57.3c-0.2,9.4-6,14.7-15.4,14.8c-18.6,0.3-37.3,0.3-55.9,0c-10-0.2-15.6-5.4-15.6-15.9
		C240.7,454.2,240.7,444.8,240.7,435.5z"/>
	<path d="M404,392.1c8.9,0,17.8,0.1,26.7,0c11.1-0.2,16.8,5.6,17,16.1c0.4,18.3,0.4,36.5,0,54.8c-0.2,10.5-5.9,16.5-16.8,16.5
		c-17.8,0-35.6-0.1-53.5,0.1c-11.7,0.1-17.5-6.2-17.8-17.1c-0.5-17.8-0.5-35.6,0-53.4c0.3-11.8,6.8-17.7,19-17.1
		C387,392.4,395.5,392.1,404,392.1z"/>
	<path d="M240.7,77c0-9.3,0.1-18.7,0-28c-0.1-9.5,3.9-15.6,13.9-15.8c19.5-0.3,39.1-0.6,58.6-0.2c10.2,0.2,14.8,6.7,14.7,16.8
		c-0.1,17.8,0,35.5,0,53.3c0,10.8-5.8,16.8-16.3,17c-18.7,0.4-37.3,0.5-56-0.1c-9.9-0.3-15.2-6-14.9-16.5
		C240.9,94.8,240.7,85.9,240.7,77z"/>
	<path d="M447.8,75.6c0,8.9,0.1,17.8,0,26.7c-0.2,11.8-6.3,18.1-18.3,18.1c-17.4,0-34.7,0-52.1,0c-11.4,0-17.6-6.2-17.9-17.2
		c-0.5-17.8-0.4-35.6-0.1-53.4c0.2-11.3,6.5-17.2,17.7-17.3c17.4-0.2,34.7-0.1,52.1-0.1c12.6,0,18.7,6.6,18.7,19.1
		C447.8,59.6,447.8,67.6,447.8,75.6z"/>
	<path d="M240.7,196.1c0-8.5,0.3-16.9-0.1-25.4c-0.6-12.6,6.1-18.2,17.6-18.5c16.9-0.4,33.9-0.6,50.7,0c14.1,0.5,18.7,6,18.9,20.2
		c0.2,16.5-0.1,32.9,0.1,49.4c0.1,12.3-6,18-18,18c-16.9,0-33.8,0.3-50.8-0.1c-14.8-0.3-18.3-4.4-18.5-19.7
		C240.6,212.1,240.7,204.1,240.7,196.1z"/>
	<path d="M403.3,239.8c-8.9,0-17.8,0-26.6,0c-10.9,0-16.8-5.9-17.1-16.2c-0.5-18.2-0.3-36.4,0-54.6c0.2-10.8,7.3-16.3,17.2-16.6
		c17.7-0.6,35.5-0.6,53.3,0c11.5,0.3,17.8,6.9,17.8,18.8c0,16.9,0.1,33.7,0,50.6c-0.1,11.7-5.5,18.3-17.9,18.2
		C421.1,239.7,412.2,239.8,403.3,239.8C403.3,239.8,403.3,239.8,403.3,239.8z"/>
	<path d="M207.4,436c0,8.9-0.2,17.8,0,26.7c0.3,11.2-5.6,16.5-16.2,16.7c-18.2,0.3-36.5,0.2-54.7,0c-9.6-0.1-15.3-5.7-15.5-14.9
		c-0.5-19.6-0.5-39.2,0.1-58.7c0.3-8.7,5.7-13.7,14.9-13.7c18.7,0,37.4-0.1,56.1,0c10.4,0,15.4,5.5,15.3,15.9
		C207.4,417.3,207.4,426.7,207.4,436z"/>
	<path d="M207.4,314.9c0,9.8,0,19.6,0,29.4c0,9.7-5.2,15.2-14.7,15.4c-18.7,0.4-37.4,0.3-56.1,0.1c-10.3-0.1-15.6-6.4-15.8-16.2
		c-0.4-18.7-0.4-37.4,0-56.1c0.2-10,6.1-15.4,16.4-15.4c18.3,0,36.5-0.2,54.8,0.1c10,0.2,15.6,5.4,15.4,16
		C207.3,297.1,207.4,306,207.4,314.9z"/>
	<path d="M207.5,76.6c0,8.9-0.2,17.8,0,26.7c0.2,11-5.1,16.8-15.9,17c-17.8,0.2-35.6,0.2-53.4,0c-11.2-0.1-17.4-5.8-17.4-17.4
		c0-17.8,0-35.6,0-53.4c0-10.9,5.7-16.6,16.3-16.8c17.8-0.3,35.6-0.4,53.4-0.1c11.8,0.2,17.9,6.1,17,18.6
		C207,59.7,207.5,68.2,207.5,76.6z"/>
	<path d="M207.5,197c0,8.9-0.1,17.8,0,26.7c0.2,10.6-5.5,15.8-15.4,16c-18.3,0.4-36.5,0.2-54.8,0.1c-10.1-0.1-16.1-5.5-16.3-15.6
		c-0.4-18.7-0.2-37.4,0-56.1c0.1-10.7,7.2-15.2,16.4-15.6c17.8-0.7,35.6-0.7,53.4-0.1c11.7,0.4,17.6,6.9,16.7,19.2
		C207,180,207.5,188.5,207.5,197z"/>
</g>
</svg>
