<?xml version="1.0" encoding="utf-8"?>
<!-- Generator: Adobe Illustrator 24.2.3, SVG Export Plug-In . SVG Version: 6.00 Build 0)  -->
<svg version="1.1" id="Layer_1" xmlns="http://www.w3.org/2000/svg" xmlns:xlink="http://www.w3.org/1999/xlink" x="0px" y="0px"
	 viewBox="0 0 448 512" style="enable-background:new 0 0 448 512;" xml:space="preserve">
<style type="text/css">
	.st0{display:none;}
	.st1{display:inline;}
	.st2{display:inline;fill:#FFFFFF;}
</style>
<g class="st0">
	<path class="st1" d="M-197,131.9c-15.4-7.3-24.2,4.2-35.5,16.5c-33.1,36.2-92.1,32.2-122-7c-6-7.9-10.7-11.4-22.1-10.1
		c-58.4,6.6-100.5-38.9-91.7-96.9c0.6-4-2.2-10.3-5.5-12.8c-49.3-38.1-49.2-99.6,0.3-137.4c3.2-2.5,5.7-9,5-13
		c-9.6-58.5,37.2-105.6,95.7-95.7c6.4,1.1,10.4-0.2,14.5-5.8c36-49.4,100.1-49.6,135.7-0.3c4.4,6.1,8.6,7.2,15.4,6
		c57.1-10.1,105.5,38.6,94.6,95.4c-1.3,6.8,0,10.2,5.5,14.2c49.4,35.8,49.6,99.3,0.5,135.9c-5.1,3.8-7.6,6.8-6.3,13.9
		C-102.9,87.3-140.5,132-197,131.9z M-318-20.4c-7-7.8-11.5-13-16.2-18c-4.7-5-9.7-9.8-14.6-14.6c-6.6-6.5-14.1-10.8-23.7-7.4
		c-15.9,5.5-20.2,23-7.9,36.1c15.2,16.2,31,31.8,47,47.1c10.3,9.8,21.7,9.2,32.5-1.6c31-30.7,61.8-61.6,92.6-92.5
		c10.5-10.5,11.1-22.4,2.5-31.6c-8.6-9.2-21.6-8.9-32.6,1.2c-8.4,7.8-16.4,16.1-24.4,24.3C-280.7-59-298.4-40.6-318-20.4z"/>
</g>
<g>
	<path d="M12.2,223.4c-6.5,0-11.9-5.2-11.9-11.7c0,0,0-0.1,0-0.1C0.2,156.3,0.4,101.1,0,45.9C0,36.2,2.3,32.6,12.6,32.7
		c55.2,0.4,110.5,0.4,165.7,0.1c9.8-0.1,13.1,3.1,13,13.1c-0.4,55.2-0.2,110.5-0.2,165.7c0,6.7,0.2,12.1-9.4,12
		C125.7,223.2,69.6,223.4,12.2,223.4z"/>
	<path d="M435.8,222.7h-167c-6.5,0-11.9-5.2-11.9-11.7c0,0,0-0.1,0-0.1c-0.1-54.8,0.3-109.6-0.3-164.3c-0.1-11.6,4-14,14.6-13.9
		c53.9,0.5,107.8,0.5,161.7,0c11.6-0.1,15.3,3.3,15.2,15.1c-0.6,53.9-0.2,107.8-0.3,161.7c0,0.6,0,1.1,0,1.7
		C447.6,217.6,442.2,222.7,435.8,222.7z"/>
	<path d="M183.2,479.4H8.4c-4.1,0-7.6-3.2-7.9-7.3c-0.1-1.6-0.2-3.2-0.2-4.8C0.2,412.5,0.5,357.7,0,302.9
		c-0.1-10.4,2.8-13.8,13.5-13.7c54.8,0.5,109.6,0.3,164.3,0.2c7.9,0,13.6,0.5,13.5,11.2c-0.4,57-0.2,114-0.2,171c0,0,0,0,0,0.1
		C191.1,475.9,187.5,479.4,183.2,479.4z"/>
	<path d="M440.9,479.3H263.9c-3.5,0-6.4-2.6-6.7-6.1c-0.2-2-0.3-3.9-0.3-5.9c-0.1-54.8,0.2-109.6-0.2-164.3
		c-0.1-10.2,2.4-14,13.3-13.9c54.8,0.5,109.6,0.3,164.3,0.2c7.8,0,13.7,0.3,13.7,11c-0.4,57.5-0.2,114.9-0.3,172.4c0,0,0,0,0,0.1
		C447.6,476.4,444.5,479.3,440.9,479.3z"/>
</g>
<g class="st0">
	<path class="st2" d="M447.7,256.4c0-7.1,0.1-14.2,0-21.3c-0.6-26.1-16.8-42.1-42.9-42.2c-13.8-0.1-27.5-0.1-41.3,0
		c-25.2,0.2-41.7,16.1-42.5,41.4c-0.4,14.6-0.4,29.3,0,43.9c0.6,24,15.7,40.2,39.7,41.5c15.9,0.9,32,0.9,47.9,0
		c24-1.5,38.7-17.9,39.1-42C447.8,270.6,447.7,263.5,447.7,256.4z M0.3,95.4c0,7.6-0.2,15.1,0,22.7c0.6,23.3,15.6,39.8,38.7,41.1
		c16.4,0.9,33,0.9,49.4,0c22-1.3,37-15.8,38.2-37.3c1-17.7,0.8-35.6-0.4-53.3c-1.2-18.4-13.3-31.8-31.5-34.4
		c-13.5-2-27.4-1.9-41.2-2C13.9,32.1,0.3,45.6,0.3,84.8C0.3,88.3,0.3,91.9,0.3,95.4z M447.7,96.2c0-7.1,0.1-14.2,0-21.3
		c-0.4-23.1-12.3-38.6-35-41c-18.4-2-37.3-2.1-55.7-0.2c-23,2.3-35.4,17.4-36,40.3c-0.4,15.1-0.5,30.2,0,45.3
		c0.8,21.6,14.6,37.9,35.6,39.6c18.5,1.5,37.3,1.5,55.8,0c20.5-1.7,34.2-17.8,35.2-38.6C448,112.2,447.6,104.2,447.7,96.2z
		 M64.4,192.8c-8,0-16-0.2-24,0c-22.1,0.7-39,16.7-39.9,38.7c-0.7,16.4-0.6,32.9,0,49.4c0.8,20.1,13.3,35.5,33.3,37.3
		c20.2,1.9,40.8,1.5,61.1-0.2c16.7-1.4,29.1-15.2,31.2-31.8c1.2-10.1,0.4-20.4,1.1-30.6C130.2,211.2,118.1,188.8,64.4,192.8z
		 M63.7,480C63.7,479.9,63.7,479.9,63.7,480c8.5-0.1,16.9,0.3,25.4-0.2c19.4-1,35.4-14.5,36.9-33.9c1.5-19.9,1.4-40-0.2-59.9
		c-1.4-17.2-15.5-30.4-32.8-31.5c-18.6-1.2-37.3-1.6-55.9-0.2c-22.9,1.7-36,16.8-36.7,39.7c-0.4,15.1-0.5,30.3,0,45.4
		c0.7,24.3,17.4,40.2,42,40.6C49.5,480.1,56.6,480,63.7,480z M384,480C384,480,384,480,384,480c7.6,0,15.1,0.1,22.7-0.1
		c23.4-0.7,39.8-15.9,40.8-38.9c0.7-16.4,0.6-32.9,0-49.4c-0.8-20.2-14.6-35.5-34.9-37.1c-18.1-1.4-36.4-1.6-54.5-0.2
		c-23.5,1.9-36.5,17.1-37.2,40.7c-0.4,13.8-0.3,27.6,0,41.4c0.5,27.8,16.4,43.3,44.4,43.6C371.5,480,377.8,480,384,480z M287.2,96.8
		C287.2,96.8,287.2,96.8,287.2,96.8c0-6.7,0.1-13.4,0-20c-0.3-27.1-14.3-42.7-41-44.3c-14.6-0.9-29.4-0.9-44,0
		c-25,1.5-38.3,13.8-40.5,38.9c-1.5,17.1-1.1,34.6,0.2,51.8c1.6,20.9,15.1,34.5,36.1,36c17.3,1.2,34.7,1.2,52,0.1
		c22.6-1.5,36.8-18,37.2-41C287.3,111.1,287.2,103.9,287.2,96.8z M287.2,256.4C287.2,256.4,287.1,256.4,287.2,256.4
		c-0.1-8,0.1-16-0.1-24c-0.6-21.3-16.4-38.4-37.5-39.4c-16.9-0.8-33.9-0.7-50.7,0c-20.1,0.8-35.6,15.2-36.9,35.2
		c-1.1,18.6-1,37.3,0,55.9c1,18.4,13.3,32.4,31.4,34.1c18.9,1.8,38.3,2.4,57.2,0.8c23.5-1.9,36.2-17.6,36.6-41.2
		C287.3,270.7,287.2,263.5,287.2,256.4z M287.1,416c0-7.6,0.2-15.1,0-22.7c-0.6-21.8-13.8-37.4-35.8-39c-19-1.4-38.2-1.2-57.2,0.3
		c-18.1,1.4-31.1,15.3-32.2,33.5c-1.1,18.5-1.3,37.3-0.1,55.8c1.3,21,16.7,35.2,37.5,35.9c16.4,0.5,32.9,0.5,49.4,0
		c21.1-0.6,37.6-17.4,38.3-38.5C287.4,432.9,287.1,424.5,287.1,416z"/>
	<path class="st1" d="M447.7,256.4c0,7.1,0.1,14.2,0,21.3c-0.4,24.1-15.1,40.5-39.1,42c-15.9,1-32,0.9-47.9,0
		c-24-1.3-39.1-17.5-39.7-41.5c-0.4-14.6-0.4-29.3,0-43.9c0.8-25.3,17.3-41.1,42.5-41.4c13.8-0.1,27.5-0.1,41.3,0
		c26.1,0.2,42.4,16.1,42.9,42.2C447.8,242.1,447.7,249.2,447.7,256.4z"/>
	<path class="st1" d="M0.3,95.4c0-3.6,0-7.1,0-10.7c0-39.1,13.6-52.7,53.3-52.5c13.7,0.1,27.6,0,41.2,2c18.2,2.6,30.3,16,31.5,34.4
		c1.1,17.7,1.4,35.6,0.4,53.3c-1.2,21.5-16.2,36-38.2,37.3c-16.4,1-32.9,0.9-49.4,0C15.9,158,0.9,141.5,0.3,118.1
		C0.2,110.6,0.3,103,0.3,95.4z"/>
	<path class="st1" d="M447.7,96.2c0,8,0.3,16-0.1,24c-1,20.7-14.7,36.9-35.2,38.6c-18.5,1.5-37.3,1.5-55.8,0
		c-21-1.7-34.8-17.9-35.6-39.6c-0.6-15.1-0.5-30.2,0-45.3c0.6-22.9,13-38,36-40.3c18.4-1.9,37.3-1.8,55.7,0.2
		c22.7,2.4,34.6,17.9,35,41C447.8,82,447.7,89.1,447.7,96.2z"/>
	<path class="st1" d="M64.4,192.8c53.7-4,65.7,18.4,62.7,62.9c-0.7,10.2,0.1,20.5-1.1,30.6c-2,16.6-14.5,30.4-31.2,31.8
		c-20.3,1.6-40.9,2.1-61.1,0.2C13.8,316.4,1.3,301,0.5,281c-0.6-16.4-0.7-32.9,0-49.4c0.9-22,17.9-38,39.9-38.7
		C48.4,192.6,56.4,192.8,64.4,192.8z"/>
	<path class="st1" d="M63.7,480c-7.1,0-14.2,0.1-21.4,0c-24.6-0.4-41.2-16.2-42-40.6C0,424.3,0,409.1,0.4,394
		c0.7-22.9,13.8-38,36.7-39.7c18.5-1.4,37.3-1,55.9,0.2c17.3,1.1,31.5,14.3,32.8,31.5c1.6,19.9,1.7,40,0.2,59.9
		c-1.4,19.4-17.5,32.9-36.9,33.9C80.6,480.2,72.2,479.9,63.7,480C63.7,479.9,63.7,479.9,63.7,480z"/>
	<path class="st1" d="M384,480c-6.2,0-12.5,0.1-18.7,0c-28.1-0.3-44-15.8-44.4-43.6c-0.2-13.8-0.3-27.6,0-41.4
		c0.6-23.6,13.7-38.7,37.2-40.7c18.1-1.5,36.4-1.2,54.5,0.2c20.3,1.6,34.1,16.9,34.9,37.1c0.7,16.4,0.7,32.9,0,49.4
		c-1,23-17.4,38.3-40.8,38.9C399.1,480.1,391.6,479.9,384,480C384,480,384,480,384,480z"/>
	<path class="st1" d="M287.2,96.8c0,7.1,0.1,14.2,0,21.4c-0.5,23-14.7,39.4-37.2,41c-17.3,1.2-34.7,1.2-52-0.1
		c-20.9-1.5-34.5-15-36.1-36c-1.3-17.2-1.8-34.7-0.2-51.8c2.2-25.1,15.5-37.3,40.5-38.9c14.6-0.9,29.4-0.9,44,0
		c26.8,1.6,40.7,17.2,41,44.3C287.3,83.5,287.2,90.1,287.2,96.8C287.2,96.8,287.2,96.8,287.2,96.8z"/>
	<path class="st1" d="M287.2,256.4c0,7.1,0.1,14.2,0,21.4c-0.4,23.6-13.1,39.3-36.6,41.2c-19,1.5-38.3,1-57.2-0.8
		c-18.2-1.8-30.5-15.7-31.4-34.1c-1-18.6-1.1-37.3,0-55.9c1.2-20,16.7-34.4,36.9-35.2c16.9-0.7,33.9-0.7,50.7,0
		c21.1,0.9,37,18.1,37.5,39.4C287.3,240.4,287.1,248.4,287.2,256.4C287.1,256.4,287.2,256.4,287.2,256.4z"/>
	<path class="st1" d="M287.1,416c0,8.4,0.2,16.9-0.1,25.3c-0.8,21.1-17.2,37.8-38.3,38.5c-16.4,0.5-32.9,0.5-49.4,0
		c-20.8-0.7-36.2-14.9-37.5-35.9c-1.2-18.5-1-37.3,0.1-55.8c1.1-18.2,14.1-32.1,32.2-33.5c19-1.5,38.2-1.7,57.2-0.3
		c22,1.6,35.2,17.1,35.8,39C287.3,400.9,287.1,408.5,287.1,416z"/>
</g>
<g class="st0">
	<path class="st2" d="M44.6,272.1c-8.4,0-16.9-0.1-25.3,0c-13.6,0.3-18.7,4.9-19,18.3c-0.4,16.9-0.2,33.7-0.1,50.6
		c0.1,12.3,6,19.1,18.7,19.1c16.9,0,33.8,0,50.6,0.1c12.8,0.1,19-6.9,19.4-18.7c0.5-16.8,0.7-33.8-0.2-50.6
		c-0.8-14.6-5.8-18.6-20.1-18.8C60.6,272,52.6,272.1,44.6,272.1z M44,479.5c8.5,0,16.9-0.2,25.4,0c12,0.4,18.8-5.2,19.1-17.2
		c0.5-17.8,0.9-35.6,0.3-53.4c-0.4-10.5-5.8-17.3-17.9-17c-17.8,0.4-35.6,0.3-53.5,0c-11.2-0.2-16.8,5.7-17,16.1
		c-0.5,18.2-0.5,36.5-0.1,54.8c0.3,10.3,5.9,16.5,16.9,16.6C26.1,479.5,35,479.5,44,479.5z M43.3,239.9c8.9,0,17.8-0.1,26.7,0
		c11.3,0.2,18.2-5.2,18.6-16.3c0.7-18.2,0.5-36.4,0-54.6c-0.3-10.4-6.7-16.5-17-16.8c-17.8-0.4-35.5-0.5-53.3,0
		c-11.3,0.3-18.1,6.4-18,18.5c0.1,17.3-0.2,34.6,0.1,52c0.2,11.3,6.3,17.1,17.7,17.1C26.4,239.9,34.8,239.9,43.3,239.9z M44.4,120.3
		c0,0,0,0.1,0,0.1c8.9,0,17.8,0,26.7,0c10,0,16.7-4.9,17-14.9c0.6-19.5,0.5-39.1,0-58.6c-0.2-8.9-6-13.7-14.9-13.8
		c-19.1-0.2-38.3-0.5-57.4-0.2C5.6,33.1,0.5,39.5,0.3,49.4c-0.2,18.2-0.3,36.5,0,54.8c0.2,10,5.9,15.7,15.9,16.1
		C25.7,120.5,35,120.3,44.4,120.3z M240.7,315.6c0,9.3,0.1,18.7,0,28c-0.1,10.4,5.3,16.1,15.3,16.3c18.7,0.4,37.4,0.3,56.1-0.1
		c9.9-0.2,15.6-5.9,15.7-16.1c0.1-18.2,0.1-36.5,0-54.8c0-10.8-5.4-16.7-16.3-16.8c-18.3-0.1-36.5-0.1-54.8,0
		c-10.9,0.1-16.3,5.6-16.1,16.7C240.8,297.8,240.7,306.7,240.7,315.6z M403.5,272.1c-8.4,0-16.9,0.2-25.3-0.1
		c-12.3-0.4-18.3,6.1-18.6,17.6c-0.5,17.7-0.4,35.5,0,53.3c0.2,11.3,6.8,17,17.9,17.2c17.8,0.2,35.5,0.1,53.3,0
		c10.9,0,16.7-6.3,16.9-16.5c0.5-18.6,0.5-37.3,0-55.9c-0.2-9.9-5.8-15.5-16.2-15.5C422.1,272.2,412.8,272.2,403.5,272.1z
		 M240.7,435.5c0,9.3,0,18.6,0,28c0,10.4,5.6,15.7,15.6,15.9c18.6,0.3,37.3,0.3,55.9,0c9.4-0.1,15.2-5.4,15.4-14.8
		c0.4-19.1,0.4-38.2,0-57.3c-0.2-9.2-5.1-15.1-14.9-15.1c-19.1-0.1-38.2-0.2-57.3,0.2c-9.5,0.2-14.7,5.5-14.8,15.2
		C240.6,416.9,240.7,426.2,240.7,435.5z M404,392.1c-8.5,0-17,0.4-25.4-0.1c-12.3-0.6-18.7,5.3-19,17.1c-0.5,17.8-0.5,35.6,0,53.4
		c0.3,10.9,6.1,17.2,17.8,17.1c17.8-0.2,35.6,0,53.5-0.1c11,0,16.6-6,16.8-16.5c0.4-18.3,0.4-36.5,0-54.8
		c-0.2-10.6-5.9-16.3-17-16.1C421.8,392.2,412.9,392.1,404,392.1z M240.7,77c0,8.9,0.2,17.8-0.1,26.7c-0.3,10.5,5,16.2,14.9,16.5
		c18.7,0.5,37.3,0.5,56,0.1c10.5-0.2,16.3-6.2,16.3-17c0-17.8-0.1-35.5,0-53.3c0.1-10.1-4.5-16.6-14.7-16.8
		c-19.5-0.4-39.1-0.2-58.6,0.2c-10,0.2-14,6.3-13.9,15.8C240.7,58.3,240.7,67.6,240.7,77z M447.8,75.6c0-8,0-16,0-24
		c0.1-12.5-6-19.1-18.7-19.1c-17.4,0-34.7-0.1-52.1,0.1c-11.2,0.1-17.5,6-17.7,17.3c-0.3,17.8-0.4,35.6,0.1,53.4
		c0.3,11,6.5,17.1,17.9,17.2c17.4,0,34.7,0,52.1,0c12,0,18.1-6.3,18.3-18.1C448,93.4,447.8,84.5,447.8,75.6z M240.7,196.1
		c0,8-0.1,16,0,24c0.1,15.4,3.7,19.4,18.5,19.7c16.9,0.4,33.8,0.1,50.8,0.1c11.9,0,18.1-5.7,18-18c-0.2-16.5,0.1-32.9-0.1-49.4
		c-0.1-14.3-4.8-19.7-18.9-20.2c-16.9-0.6-33.8-0.5-50.7,0c-11.5,0.3-18.2,5.9-17.6,18.5C241,179.1,240.7,187.6,240.7,196.1z
		 M403.3,239.8C403.3,239.8,403.3,239.8,403.3,239.8c8.9,0.1,17.8,0,26.6,0.1c12.3,0.1,17.8-6.5,17.9-18.2c0.1-16.9,0-33.7,0-50.6
		c0-11.9-6.3-18.4-17.8-18.8c-17.7-0.5-35.5-0.6-53.3,0c-9.9,0.4-17,5.8-17.2,16.6c-0.4,18.2-0.5,36.4,0,54.6
		c0.3,10.4,6.2,16.2,17.1,16.2C385.5,239.8,394.4,239.8,403.3,239.8z M207.4,436c0-9.3-0.1-18.7,0-28c0.1-10.4-4.9-15.8-15.3-15.9
		c-18.7-0.1-37.4,0-56.1,0c-9.2,0-14.6,5-14.9,13.7c-0.6,19.6-0.6,39.1-0.1,58.7c0.2,9.3,5.9,14.8,15.5,14.9
		c18.2,0.2,36.5,0.3,54.7,0c10.6-0.2,16.5-5.5,16.2-16.7C207.3,453.8,207.5,444.9,207.4,436z M207.4,314.9c0-8.9-0.1-17.8,0-26.7
		c0.2-10.6-5.4-15.8-15.4-16c-18.2-0.3-36.5-0.1-54.8-0.1c-10.3,0-16.1,5.4-16.4,15.4c-0.5,18.7-0.4,37.4,0,56.1
		c0.2,9.8,5.5,16,15.8,16.2c18.7,0.3,37.4,0.4,56.1-0.1c9.4-0.2,14.6-5.7,14.7-15.4C207.5,334.5,207.4,324.7,207.4,314.9z
		 M207.5,76.6c0-8.5-0.5-16.9,0.1-25.3c0.8-12.5-5.2-18.4-17-18.6c-17.8-0.3-35.6-0.2-53.4,0.1c-10.6,0.2-16.4,5.8-16.3,16.8
		c0,17.8,0,35.6,0,53.4c0,11.5,6.2,17.2,17.4,17.4c17.8,0.2,35.6,0.2,53.4,0c10.8-0.2,16.1-6,15.9-17
		C207.3,94.4,207.5,85.5,207.5,76.6z M207.5,197c0-8.5-0.5-17,0.1-25.4c0.9-12.3-5-18.9-16.7-19.2c-17.8-0.6-35.6-0.5-53.4,0.1
		c-9.2,0.4-16.4,4.9-16.4,15.6c-0.1,18.7-0.4,37.4,0,56.1c0.2,10.1,6.1,15.5,16.3,15.6c18.3,0.1,36.5,0.3,54.8-0.1
		c10-0.2,15.6-5.4,15.4-16C207.3,214.8,207.5,205.9,207.5,197z"/>
	<path class="st1" d="M44.6,272.1c8,0,16-0.1,24,0c14.3,0.2,19.4,4.2,20.1,18.8c0.9,16.8,0.7,33.7,0.2,50.6
		c-0.4,11.9-6.6,18.9-19.4,18.7c-16.9-0.2-33.7-0.1-50.6-0.1c-12.7,0-18.6-6.8-18.7-19.1c-0.1-16.9-0.3-33.7,0.1-50.6
		c0.3-13.3,5.4-18,19-18.3C27.7,272,36.1,272.1,44.6,272.1z"/>
	<path class="st1" d="M44,479.5c-8.9,0-17.8,0-26.7,0c-11-0.1-16.6-6.2-16.9-16.6c-0.5-18.2-0.4-36.5,0.1-54.8
		c0.3-10.4,5.8-16.3,17-16.1c17.8,0.3,35.6,0.4,53.5,0c12.1-0.3,17.5,6.5,17.9,17c0.6,17.8,0.2,35.6-0.3,53.4
		c-0.4,11.9-7.1,17.5-19.1,17.2C60.9,479.3,52.4,479.5,44,479.5z"/>
	<path class="st1" d="M43.3,239.9c-8.4,0-16.9,0-25.3,0c-11.4,0-17.5-5.8-17.7-17.1c-0.3-17.3,0-34.6-0.1-52
		c-0.1-12.2,6.7-18.2,18-18.5c17.8-0.5,35.5-0.5,53.3,0c10.4,0.3,16.7,6.4,17,16.8c0.5,18.2,0.7,36.4,0,54.6
		c-0.4,11.1-7.4,16.5-18.6,16.3C61,239.8,52.2,239.9,43.3,239.9z"/>
	<path class="st1" d="M44.4,120.3c-9.4,0-18.7,0.3-28.1-0.1c-10.1-0.4-15.8-6.1-15.9-16.1C0,85.9,0.1,67.6,0.3,49.4
		c0.1-9.9,5.2-16.3,15.4-16.5c19.1-0.3,38.3-0.1,57.4,0.2c8.9,0.1,14.7,4.9,14.9,13.8c0.5,19.5,0.6,39.1,0,58.6
		c-0.3,10-7,14.9-17,14.9c-8.9,0-17.8,0-26.7,0C44.4,120.3,44.4,120.3,44.4,120.3z"/>
	<path class="st1" d="M240.7,315.6c0-8.9,0.1-17.8,0-26.7c-0.2-11.1,5.2-16.6,16.1-16.7c18.3-0.1,36.5-0.1,54.8,0
		c10.9,0.1,16.3,6,16.3,16.8c0.1,18.3,0.1,36.5,0,54.8c-0.1,10.2-5.7,15.9-15.7,16.1c-18.7,0.4-37.4,0.5-56.1,0.1
		c-10-0.2-15.4-5.9-15.3-16.3C240.7,334.3,240.7,324.9,240.7,315.6z"/>
	<path class="st1" d="M403.5,272.1c9.3,0,18.7,0,28,0c10.3,0,15.9,5.6,16.2,15.5c0.5,18.6,0.5,37.3,0,55.9
		c-0.3,10.3-6.1,16.5-16.9,16.5c-17.8,0.1-35.5,0.2-53.3,0c-11.1-0.1-17.7-5.9-17.9-17.2c-0.4-17.8-0.5-35.5,0-53.3
		c0.3-11.5,6.3-18,18.6-17.6C386.6,272.4,395,272.1,403.5,272.1z"/>
	<path class="st1" d="M240.7,435.5c0-9.3,0-18.6,0-28c0.1-9.7,5.3-15,14.8-15.2c19.1-0.4,38.2-0.3,57.3-0.2
		c9.8,0.1,14.8,5.9,14.9,15.1c0.4,19.1,0.4,38.2,0,57.3c-0.2,9.4-6,14.7-15.4,14.8c-18.6,0.3-37.3,0.3-55.9,0
		c-10-0.2-15.6-5.4-15.6-15.9C240.7,454.2,240.7,444.8,240.7,435.5z"/>
	<path class="st1" d="M404,392.1c8.9,0,17.8,0.1,26.7,0c11.1-0.2,16.8,5.6,17,16.1c0.4,18.3,0.4,36.5,0,54.8
		c-0.2,10.5-5.9,16.5-16.8,16.5c-17.8,0-35.6-0.1-53.5,0.1c-11.7,0.1-17.5-6.2-17.8-17.1c-0.5-17.8-0.5-35.6,0-53.4
		c0.3-11.8,6.8-17.7,19-17.1C387,392.4,395.5,392.1,404,392.1z"/>
	<path class="st1" d="M240.7,77c0-9.3,0.1-18.7,0-28c-0.1-9.5,3.9-15.6,13.9-15.8c19.5-0.3,39.1-0.6,58.6-0.2
		c10.2,0.2,14.8,6.7,14.7,16.8c-0.1,17.8,0,35.5,0,53.3c0,10.8-5.8,16.8-16.3,17c-18.7,0.4-37.3,0.5-56-0.1
		c-9.9-0.3-15.2-6-14.9-16.5C240.9,94.8,240.7,85.9,240.7,77z"/>
	<path class="st1" d="M447.8,75.6c0,8.9,0.1,17.8,0,26.7c-0.2,11.8-6.3,18.1-18.3,18.1c-17.4,0-34.7,0-52.1,0
		c-11.4,0-17.6-6.2-17.9-17.2c-0.5-17.8-0.4-35.6-0.1-53.4c0.2-11.3,6.5-17.2,17.7-17.3c17.4-0.2,34.7-0.1,52.1-0.1
		c12.6,0,18.7,6.6,18.7,19.1C447.8,59.6,447.8,67.6,447.8,75.6z"/>
	<path class="st1" d="M240.7,196.1c0-8.5,0.3-16.9-0.1-25.4c-0.6-12.6,6.1-18.2,17.6-18.5c16.9-0.4,33.9-0.6,50.7,0
		c14.1,0.5,18.7,6,18.9,20.2c0.2,16.5-0.1,32.9,0.1,49.4c0.1,12.3-6,18-18,18c-16.9,0-33.8,0.3-50.8-0.1
		c-14.8-0.3-18.3-4.4-18.5-19.7C240.6,212.1,240.7,204.1,240.7,196.1z"/>
	<path class="st1" d="M403.3,239.8c-8.9,0-17.8,0-26.6,0c-10.9,0-16.8-5.9-17.1-16.2c-0.5-18.2-0.3-36.4,0-54.6
		c0.2-10.8,7.3-16.3,17.2-16.6c17.7-0.6,35.5-0.6,53.3,0c11.5,0.3,17.8,6.9,17.8,18.8c0,16.9,0.1,33.7,0,50.6
		c-0.1,11.7-5.5,18.3-17.9,18.2C421.1,239.7,412.2,239.8,403.3,239.8C403.3,239.8,403.3,239.8,403.3,239.8z"/>
	<path class="st1" d="M207.4,436c0,8.9-0.2,17.8,0,26.7c0.3,11.2-5.6,16.5-16.2,16.7c-18.2,0.3-36.5,0.2-54.7,0
		c-9.6-0.1-15.3-5.7-15.5-14.9c-0.5-19.6-0.5-39.2,0.1-58.7c0.3-8.7,5.7-13.7,14.9-13.7c18.7,0,37.4-0.1,56.1,0
		c10.4,0,15.4,5.5,15.3,15.9C207.4,417.3,207.4,426.7,207.4,436z"/>
	<path class="st1" d="M207.4,314.9c0,9.8,0,19.6,0,29.4c0,9.7-5.2,15.2-14.7,15.4c-18.7,0.4-37.4,0.3-56.1,0.1
		c-10.3-0.1-15.6-6.4-15.8-16.2c-0.4-18.7-0.4-37.4,0-56.1c0.2-10,6.1-15.4,16.4-15.4c18.3,0,36.5-0.2,54.8,0.1
		c10,0.2,15.6,5.4,15.4,16C207.3,297.1,207.4,306,207.4,314.9z"/>
	<path class="st1" d="M207.5,76.6c0,8.9-0.2,17.8,0,26.7c0.2,11-5.1,16.8-15.9,17c-17.8,0.2-35.6,0.2-53.4,0
		c-11.2-0.1-17.4-5.8-17.4-17.4c0-17.8,0-35.6,0-53.4c0-10.9,5.7-16.6,16.3-16.8c17.8-0.3,35.6-0.4,53.4-0.1
		c11.8,0.2,17.9,6.1,17,18.6C207,59.7,207.5,68.2,207.5,76.6z"/>
	<path class="st1" d="M207.5,197c0,8.9-0.1,17.8,0,26.7c0.2,10.6-5.5,15.8-15.4,16c-18.3,0.4-36.5,0.2-54.8,0.1
		c-10.1-0.1-16.1-5.5-16.3-15.6c-0.4-18.7-0.2-37.4,0-56.1c0.1-10.7,7.2-15.2,16.4-15.6c17.8-0.7,35.6-0.7,53.4-0.1
		c11.7,0.4,17.6,6.9,16.7,19.2C207,180,207.5,188.5,207.5,197z"/>
</g>
</svg>
