<?xml version="1.0" encoding="utf-8"?>
<!-- Generator: Adobe Illustrator 24.2.3, SVG Export Plug-In . SVG Version: 6.00 Build 0)  -->
<svg version="1.1" id="Layer_1" xmlns="http://www.w3.org/2000/svg" xmlns:xlink="http://www.w3.org/1999/xlink" x="0px" y="0px"
	 viewBox="0 0 448 512" style="enable-background:new 0 0 448 512;" xml:space="preserve">
<path d="M448,315.7c0,55.4-44.9,100.3-100.3,100.3h-37.9c-3,0-7.3-1.8-9.4-4c-25.9-27.6-7-60,19.7-60h27.7
	c20.1,0,36.3-16.3,36.3-36.3V288H270.4c-8,0-14.4-6.4-14.4-14.4V110.4c0-8,6.4-14.4,14.4-14.4h163.2c8,0,14.4,6.4,14.4,14.4V192v32
	V315.7z M192,315.7C192,371.1,147.1,416,91.7,416H53.7c-3,0-7.3-1.8-9.4-4c-25.9-27.6-7-60,19.7-60h27.7c20.1,0,36.3-16.3,36.3-36.3
	V288H14.2C6.3,288,0,281.7,0,273.8V110.2C0,102.3,6.3,96,14.2,96h163.7c7.8,0,14.2,6.3,14.2,14.2V192v32V315.7z"/>
</svg>
