<?xml version="1.0" encoding="utf-8"?>
<!-- Generator: Adobe Illustrator 24.2.3, SVG Export Plug-In . SVG Version: 6.00 Build 0)  -->
<svg version="1.1" id="Layer_1" xmlns="http://www.w3.org/2000/svg" xmlns:xlink="http://www.w3.org/1999/xlink" x="0px" y="0px"
	 viewBox="0 0 448 512" style="enable-background:new 0 0 448 512;" xml:space="preserve">
<path d="M0,216C0,149.7,53.7,96,120,96h7.3c18,0,33.1,14.7,32.7,32.7c-0.4,17.4-14.5,31.3-32,31.3h-8c-30.9,0-56,25.1-56,56v8h113.4
	c8.1,0,14.6,6.5,14.6,14.6v162.7c0,8.1-6.5,14.6-14.6,14.6H14.6C6.5,416,0,409.5,0,401.4V320v-32V216z M256,216
	c0-66.3,53.7-120,120-120h7.3c18,0,33.1,14.7,32.7,32.7c-0.4,17.4-14.5,31.3-32,31.3h-8c-30.9,0-56,25.1-56,56v8h113.8
	c7.8,0,14.2,6.3,14.2,14.2v163.7c0,7.8-6.3,14.2-14.2,14.2H270.2c-7.8,0-14.2-6.3-14.2-14.2V320v-32V216z"/>
</svg>
